<?xml version="1.0" encoding="utf-8" standalone="no"?>
<!DOCTYPE svg PUBLIC "-//W3C//DTD SVG 1.1//EN"
  "http://www.w3.org/Graphics/SVG/1.1/DTD/svg11.dtd">
<!-- Created with matplotlib (https://matplotlib.org/) -->
<svg height="345.6pt" version="1.1" viewBox="0 0 460.8 345.6" width="460.8pt" xmlns="http://www.w3.org/2000/svg" xmlns:xlink="http://www.w3.org/1999/xlink">
 <defs>
  <style type="text/css">
*{stroke-linecap:butt;stroke-linejoin:round;}
  </style>
 </defs>
 <g id="figure_1">
  <g id="patch_1">
   <path d="M 0 345.6 
L 460.8 345.6 
L 460.8 0 
L 0 0 
z
" style="fill:#ffffff;"/>
  </g>
  <g id="axes_1">
   <g id="patch_2">
    <path d="M 57.6 307.584 
L 414.72 307.584 
L 414.72 41.472 
L 57.6 41.472 
z
" style="fill:#ffffff;"/>
   </g>
   <g id="matplotlib.axis_1">
    <g id="xtick_1">
     <g id="line2d_1">
      <defs>
       <path d="M 0 0 
L 0 3.5 
" id="m154bf53d07" style="stroke:#000000;stroke-width:0.8;"/>
      </defs>
      <g>
       <use style="stroke:#000000;stroke-width:0.8;" x="77.45341" xlink:href="#m154bf53d07" y="307.584"/>
      </g>
     </g>
     <g id="text_1">
      <!-- 10 -->
      <defs>
       <path d="M 12.40625 8.296875 
L 28.515625 8.296875 
L 28.515625 63.921875 
L 10.984375 60.40625 
L 10.984375 69.390625 
L 28.421875 72.90625 
L 38.28125 72.90625 
L 38.28125 8.296875 
L 54.390625 8.296875 
L 54.390625 0 
L 12.40625 0 
z
" id="DejaVuSans-49"/>
       <path d="M 31.78125 66.40625 
Q 24.171875 66.40625 20.328125 58.90625 
Q 16.5 51.421875 16.5 36.375 
Q 16.5 21.390625 20.328125 13.890625 
Q 24.171875 6.390625 31.78125 6.390625 
Q 39.453125 6.390625 43.28125 13.890625 
Q 47.125 21.390625 47.125 36.375 
Q 47.125 51.421875 43.28125 58.90625 
Q 39.453125 66.40625 31.78125 66.40625 
z
M 31.78125 74.21875 
Q 44.046875 74.21875 50.515625 64.515625 
Q 56.984375 54.828125 56.984375 36.375 
Q 56.984375 17.96875 50.515625 8.265625 
Q 44.046875 -1.421875 31.78125 -1.421875 
Q 19.53125 -1.421875 13.0625 8.265625 
Q 6.59375 17.96875 6.59375 36.375 
Q 6.59375 54.828125 13.0625 64.515625 
Q 19.53125 74.21875 31.78125 74.21875 
z
" id="DejaVuSans-48"/>
      </defs>
      <g transform="translate(71.09091 322.182437)scale(0.1 -0.1)">
       <use xlink:href="#DejaVuSans-49"/>
       <use x="63.623047" xlink:href="#DejaVuSans-48"/>
      </g>
     </g>
    </g>
    <g id="xtick_2">
     <g id="line2d_2">
      <g>
       <use style="stroke:#000000;stroke-width:0.8;" x="137.798121" xlink:href="#m154bf53d07" y="307.584"/>
      </g>
     </g>
     <g id="text_2">
      <!-- 15 -->
      <defs>
       <path d="M 10.796875 72.90625 
L 49.515625 72.90625 
L 49.515625 64.59375 
L 19.828125 64.59375 
L 19.828125 46.734375 
Q 21.96875 47.46875 24.109375 47.828125 
Q 26.265625 48.1875 28.421875 48.1875 
Q 40.625 48.1875 47.75 41.5 
Q 54.890625 34.8125 54.890625 23.390625 
Q 54.890625 11.625 47.5625 5.09375 
Q 40.234375 -1.421875 26.90625 -1.421875 
Q 22.3125 -1.421875 17.546875 -0.640625 
Q 12.796875 0.140625 7.71875 1.703125 
L 7.71875 11.625 
Q 12.109375 9.234375 16.796875 8.0625 
Q 21.484375 6.890625 26.703125 6.890625 
Q 35.15625 6.890625 40.078125 11.328125 
Q 45.015625 15.765625 45.015625 23.390625 
Q 45.015625 31 40.078125 35.4375 
Q 35.15625 39.890625 26.703125 39.890625 
Q 22.75 39.890625 18.8125 39.015625 
Q 14.890625 38.140625 10.796875 36.28125 
z
" id="DejaVuSans-53"/>
      </defs>
      <g transform="translate(131.435621 322.182437)scale(0.1 -0.1)">
       <use xlink:href="#DejaVuSans-49"/>
       <use x="63.623047" xlink:href="#DejaVuSans-53"/>
      </g>
     </g>
    </g>
    <g id="xtick_3">
     <g id="line2d_3">
      <g>
       <use style="stroke:#000000;stroke-width:0.8;" x="198.142832" xlink:href="#m154bf53d07" y="307.584"/>
      </g>
     </g>
     <g id="text_3">
      <!-- 20 -->
      <defs>
       <path d="M 19.1875 8.296875 
L 53.609375 8.296875 
L 53.609375 0 
L 7.328125 0 
L 7.328125 8.296875 
Q 12.9375 14.109375 22.625 23.890625 
Q 32.328125 33.6875 34.8125 36.53125 
Q 39.546875 41.84375 41.421875 45.53125 
Q 43.3125 49.21875 43.3125 52.78125 
Q 43.3125 58.59375 39.234375 62.25 
Q 35.15625 65.921875 28.609375 65.921875 
Q 23.96875 65.921875 18.8125 64.3125 
Q 13.671875 62.703125 7.8125 59.421875 
L 7.8125 69.390625 
Q 13.765625 71.78125 18.9375 73 
Q 24.125 74.21875 28.421875 74.21875 
Q 39.75 74.21875 46.484375 68.546875 
Q 53.21875 62.890625 53.21875 53.421875 
Q 53.21875 48.921875 51.53125 44.890625 
Q 49.859375 40.875 45.40625 35.40625 
Q 44.1875 33.984375 37.640625 27.21875 
Q 31.109375 20.453125 19.1875 8.296875 
z
" id="DejaVuSans-50"/>
      </defs>
      <g transform="translate(191.780332 322.182437)scale(0.1 -0.1)">
       <use xlink:href="#DejaVuSans-50"/>
       <use x="63.623047" xlink:href="#DejaVuSans-48"/>
      </g>
     </g>
    </g>
    <g id="xtick_4">
     <g id="line2d_4">
      <g>
       <use style="stroke:#000000;stroke-width:0.8;" x="258.487543" xlink:href="#m154bf53d07" y="307.584"/>
      </g>
     </g>
     <g id="text_4">
      <!-- 25 -->
      <g transform="translate(252.125043 322.182437)scale(0.1 -0.1)">
       <use xlink:href="#DejaVuSans-50"/>
       <use x="63.623047" xlink:href="#DejaVuSans-53"/>
      </g>
     </g>
    </g>
    <g id="xtick_5">
     <g id="line2d_5">
      <g>
       <use style="stroke:#000000;stroke-width:0.8;" x="318.832254" xlink:href="#m154bf53d07" y="307.584"/>
      </g>
     </g>
     <g id="text_5">
      <!-- 30 -->
      <defs>
       <path d="M 40.578125 39.3125 
Q 47.65625 37.796875 51.625 33 
Q 55.609375 28.21875 55.609375 21.1875 
Q 55.609375 10.40625 48.1875 4.484375 
Q 40.765625 -1.421875 27.09375 -1.421875 
Q 22.515625 -1.421875 17.65625 -0.515625 
Q 12.796875 0.390625 7.625 2.203125 
L 7.625 11.71875 
Q 11.71875 9.328125 16.59375 8.109375 
Q 21.484375 6.890625 26.8125 6.890625 
Q 36.078125 6.890625 40.9375 10.546875 
Q 45.796875 14.203125 45.796875 21.1875 
Q 45.796875 27.640625 41.28125 31.265625 
Q 36.765625 34.90625 28.71875 34.90625 
L 20.21875 34.90625 
L 20.21875 43.015625 
L 29.109375 43.015625 
Q 36.375 43.015625 40.234375 45.921875 
Q 44.09375 48.828125 44.09375 54.296875 
Q 44.09375 59.90625 40.109375 62.90625 
Q 36.140625 65.921875 28.71875 65.921875 
Q 24.65625 65.921875 20.015625 65.03125 
Q 15.375 64.15625 9.8125 62.3125 
L 9.8125 71.09375 
Q 15.4375 72.65625 20.34375 73.4375 
Q 25.25 74.21875 29.59375 74.21875 
Q 40.828125 74.21875 47.359375 69.109375 
Q 53.90625 64.015625 53.90625 55.328125 
Q 53.90625 49.265625 50.4375 45.09375 
Q 46.96875 40.921875 40.578125 39.3125 
z
" id="DejaVuSans-51"/>
      </defs>
      <g transform="translate(312.469754 322.182437)scale(0.1 -0.1)">
       <use xlink:href="#DejaVuSans-51"/>
       <use x="63.623047" xlink:href="#DejaVuSans-48"/>
      </g>
     </g>
    </g>
    <g id="xtick_6">
     <g id="line2d_6">
      <g>
       <use style="stroke:#000000;stroke-width:0.8;" x="379.176965" xlink:href="#m154bf53d07" y="307.584"/>
      </g>
     </g>
     <g id="text_6">
      <!-- 35 -->
      <g transform="translate(372.814465 322.182437)scale(0.1 -0.1)">
       <use xlink:href="#DejaVuSans-51"/>
       <use x="63.623047" xlink:href="#DejaVuSans-53"/>
      </g>
     </g>
    </g>
    <g id="text_7">
     <!-- Avg Max Temperature (°C) -->
     <defs>
      <path d="M 34.1875 63.1875 
L 20.796875 26.90625 
L 47.609375 26.90625 
z
M 28.609375 72.90625 
L 39.796875 72.90625 
L 67.578125 0 
L 57.328125 0 
L 50.6875 18.703125 
L 17.828125 18.703125 
L 11.1875 0 
L 0.78125 0 
z
" id="DejaVuSans-65"/>
      <path d="M 2.984375 54.6875 
L 12.5 54.6875 
L 29.59375 8.796875 
L 46.6875 54.6875 
L 56.203125 54.6875 
L 35.6875 0 
L 23.484375 0 
z
" id="DejaVuSans-118"/>
      <path d="M 45.40625 27.984375 
Q 45.40625 37.75 41.375 43.109375 
Q 37.359375 48.484375 30.078125 48.484375 
Q 22.859375 48.484375 18.828125 43.109375 
Q 14.796875 37.75 14.796875 27.984375 
Q 14.796875 18.265625 18.828125 12.890625 
Q 22.859375 7.515625 30.078125 7.515625 
Q 37.359375 7.515625 41.375 12.890625 
Q 45.40625 18.265625 45.40625 27.984375 
z
M 54.390625 6.78125 
Q 54.390625 -7.171875 48.1875 -13.984375 
Q 42 -20.796875 29.203125 -20.796875 
Q 24.46875 -20.796875 20.265625 -20.09375 
Q 16.0625 -19.390625 12.109375 -17.921875 
L 12.109375 -9.1875 
Q 16.0625 -11.328125 19.921875 -12.34375 
Q 23.78125 -13.375 27.78125 -13.375 
Q 36.625 -13.375 41.015625 -8.765625 
Q 45.40625 -4.15625 45.40625 5.171875 
L 45.40625 9.625 
Q 42.625 4.78125 38.28125 2.390625 
Q 33.9375 0 27.875 0 
Q 17.828125 0 11.671875 7.65625 
Q 5.515625 15.328125 5.515625 27.984375 
Q 5.515625 40.671875 11.671875 48.328125 
Q 17.828125 56 27.875 56 
Q 33.9375 56 38.28125 53.609375 
Q 42.625 51.21875 45.40625 46.390625 
L 45.40625 54.6875 
L 54.390625 54.6875 
z
" id="DejaVuSans-103"/>
      <path id="DejaVuSans-32"/>
      <path d="M 9.8125 72.90625 
L 24.515625 72.90625 
L 43.109375 23.296875 
L 61.8125 72.90625 
L 76.515625 72.90625 
L 76.515625 0 
L 66.890625 0 
L 66.890625 64.015625 
L 48.09375 14.015625 
L 38.1875 14.015625 
L 19.390625 64.015625 
L 19.390625 0 
L 9.8125 0 
z
" id="DejaVuSans-77"/>
      <path d="M 34.28125 27.484375 
Q 23.390625 27.484375 19.1875 25 
Q 14.984375 22.515625 14.984375 16.5 
Q 14.984375 11.71875 18.140625 8.90625 
Q 21.296875 6.109375 26.703125 6.109375 
Q 34.1875 6.109375 38.703125 11.40625 
Q 43.21875 16.703125 43.21875 25.484375 
L 43.21875 27.484375 
z
M 52.203125 31.203125 
L 52.203125 0 
L 43.21875 0 
L 43.21875 8.296875 
Q 40.140625 3.328125 35.546875 0.953125 
Q 30.953125 -1.421875 24.3125 -1.421875 
Q 15.921875 -1.421875 10.953125 3.296875 
Q 6 8.015625 6 15.921875 
Q 6 25.140625 12.171875 29.828125 
Q 18.359375 34.515625 30.609375 34.515625 
L 43.21875 34.515625 
L 43.21875 35.40625 
Q 43.21875 41.609375 39.140625 45 
Q 35.0625 48.390625 27.6875 48.390625 
Q 23 48.390625 18.546875 47.265625 
Q 14.109375 46.140625 10.015625 43.890625 
L 10.015625 52.203125 
Q 14.9375 54.109375 19.578125 55.046875 
Q 24.21875 56 28.609375 56 
Q 40.484375 56 46.34375 49.84375 
Q 52.203125 43.703125 52.203125 31.203125 
z
" id="DejaVuSans-97"/>
      <path d="M 54.890625 54.6875 
L 35.109375 28.078125 
L 55.90625 0 
L 45.3125 0 
L 29.390625 21.484375 
L 13.484375 0 
L 2.875 0 
L 24.125 28.609375 
L 4.6875 54.6875 
L 15.28125 54.6875 
L 29.78125 35.203125 
L 44.28125 54.6875 
z
" id="DejaVuSans-120"/>
      <path d="M -0.296875 72.90625 
L 61.375 72.90625 
L 61.375 64.59375 
L 35.5 64.59375 
L 35.5 0 
L 25.59375 0 
L 25.59375 64.59375 
L -0.296875 64.59375 
z
" id="DejaVuSans-84"/>
      <path d="M 56.203125 29.59375 
L 56.203125 25.203125 
L 14.890625 25.203125 
Q 15.484375 15.921875 20.484375 11.0625 
Q 25.484375 6.203125 34.421875 6.203125 
Q 39.59375 6.203125 44.453125 7.46875 
Q 49.3125 8.734375 54.109375 11.28125 
L 54.109375 2.78125 
Q 49.265625 0.734375 44.1875 -0.34375 
Q 39.109375 -1.421875 33.890625 -1.421875 
Q 20.796875 -1.421875 13.15625 6.1875 
Q 5.515625 13.8125 5.515625 26.8125 
Q 5.515625 40.234375 12.765625 48.109375 
Q 20.015625 56 32.328125 56 
Q 43.359375 56 49.78125 48.890625 
Q 56.203125 41.796875 56.203125 29.59375 
z
M 47.21875 32.234375 
Q 47.125 39.59375 43.09375 43.984375 
Q 39.0625 48.390625 32.421875 48.390625 
Q 24.90625 48.390625 20.390625 44.140625 
Q 15.875 39.890625 15.1875 32.171875 
z
" id="DejaVuSans-101"/>
      <path d="M 52 44.1875 
Q 55.375 50.25 60.0625 53.125 
Q 64.75 56 71.09375 56 
Q 79.640625 56 84.28125 50.015625 
Q 88.921875 44.046875 88.921875 33.015625 
L 88.921875 0 
L 79.890625 0 
L 79.890625 32.71875 
Q 79.890625 40.578125 77.09375 44.375 
Q 74.3125 48.1875 68.609375 48.1875 
Q 61.625 48.1875 57.5625 43.546875 
Q 53.515625 38.921875 53.515625 30.90625 
L 53.515625 0 
L 44.484375 0 
L 44.484375 32.71875 
Q 44.484375 40.625 41.703125 44.40625 
Q 38.921875 48.1875 33.109375 48.1875 
Q 26.21875 48.1875 22.15625 43.53125 
Q 18.109375 38.875 18.109375 30.90625 
L 18.109375 0 
L 9.078125 0 
L 9.078125 54.6875 
L 18.109375 54.6875 
L 18.109375 46.1875 
Q 21.1875 51.21875 25.484375 53.609375 
Q 29.78125 56 35.6875 56 
Q 41.65625 56 45.828125 52.96875 
Q 50 49.953125 52 44.1875 
z
" id="DejaVuSans-109"/>
      <path d="M 18.109375 8.203125 
L 18.109375 -20.796875 
L 9.078125 -20.796875 
L 9.078125 54.6875 
L 18.109375 54.6875 
L 18.109375 46.390625 
Q 20.953125 51.265625 25.265625 53.625 
Q 29.59375 56 35.59375 56 
Q 45.5625 56 51.78125 48.09375 
Q 58.015625 40.1875 58.015625 27.296875 
Q 58.015625 14.40625 51.78125 6.484375 
Q 45.5625 -1.421875 35.59375 -1.421875 
Q 29.59375 -1.421875 25.265625 0.953125 
Q 20.953125 3.328125 18.109375 8.203125 
z
M 48.6875 27.296875 
Q 48.6875 37.203125 44.609375 42.84375 
Q 40.53125 48.484375 33.40625 48.484375 
Q 26.265625 48.484375 22.1875 42.84375 
Q 18.109375 37.203125 18.109375 27.296875 
Q 18.109375 17.390625 22.1875 11.75 
Q 26.265625 6.109375 33.40625 6.109375 
Q 40.53125 6.109375 44.609375 11.75 
Q 48.6875 17.390625 48.6875 27.296875 
z
" id="DejaVuSans-112"/>
      <path d="M 41.109375 46.296875 
Q 39.59375 47.171875 37.8125 47.578125 
Q 36.03125 48 33.890625 48 
Q 26.265625 48 22.1875 43.046875 
Q 18.109375 38.09375 18.109375 28.8125 
L 18.109375 0 
L 9.078125 0 
L 9.078125 54.6875 
L 18.109375 54.6875 
L 18.109375 46.1875 
Q 20.953125 51.171875 25.484375 53.578125 
Q 30.03125 56 36.53125 56 
Q 37.453125 56 38.578125 55.875 
Q 39.703125 55.765625 41.0625 55.515625 
z
" id="DejaVuSans-114"/>
      <path d="M 18.3125 70.21875 
L 18.3125 54.6875 
L 36.8125 54.6875 
L 36.8125 47.703125 
L 18.3125 47.703125 
L 18.3125 18.015625 
Q 18.3125 11.328125 20.140625 9.421875 
Q 21.96875 7.515625 27.59375 7.515625 
L 36.8125 7.515625 
L 36.8125 0 
L 27.59375 0 
Q 17.1875 0 13.234375 3.875 
Q 9.28125 7.765625 9.28125 18.015625 
L 9.28125 47.703125 
L 2.6875 47.703125 
L 2.6875 54.6875 
L 9.28125 54.6875 
L 9.28125 70.21875 
z
" id="DejaVuSans-116"/>
      <path d="M 8.5 21.578125 
L 8.5 54.6875 
L 17.484375 54.6875 
L 17.484375 21.921875 
Q 17.484375 14.15625 20.5 10.265625 
Q 23.53125 6.390625 29.59375 6.390625 
Q 36.859375 6.390625 41.078125 11.03125 
Q 45.3125 15.671875 45.3125 23.6875 
L 45.3125 54.6875 
L 54.296875 54.6875 
L 54.296875 0 
L 45.3125 0 
L 45.3125 8.40625 
Q 42.046875 3.421875 37.71875 1 
Q 33.40625 -1.421875 27.6875 -1.421875 
Q 18.265625 -1.421875 13.375 4.4375 
Q 8.5 10.296875 8.5 21.578125 
z
M 31.109375 56 
z
" id="DejaVuSans-117"/>
      <path d="M 31 75.875 
Q 24.46875 64.65625 21.28125 53.65625 
Q 18.109375 42.671875 18.109375 31.390625 
Q 18.109375 20.125 21.3125 9.0625 
Q 24.515625 -2 31 -13.1875 
L 23.1875 -13.1875 
Q 15.875 -1.703125 12.234375 9.375 
Q 8.59375 20.453125 8.59375 31.390625 
Q 8.59375 42.28125 12.203125 53.3125 
Q 15.828125 64.359375 23.1875 75.875 
z
" id="DejaVuSans-40"/>
      <path d="M 25 67.921875 
Q 21.09375 67.921875 18.40625 65.203125 
Q 15.71875 62.5 15.71875 58.59375 
Q 15.71875 54.734375 18.40625 52.078125 
Q 21.09375 49.421875 25 49.421875 
Q 28.90625 49.421875 31.59375 52.078125 
Q 34.28125 54.734375 34.28125 58.59375 
Q 34.28125 62.453125 31.5625 65.1875 
Q 28.859375 67.921875 25 67.921875 
z
M 25 74.21875 
Q 28.125 74.21875 31 73.015625 
Q 33.890625 71.828125 35.984375 69.578125 
Q 38.234375 67.390625 39.359375 64.59375 
Q 40.484375 61.8125 40.484375 58.59375 
Q 40.484375 52.15625 35.96875 47.6875 
Q 31.453125 43.21875 24.90625 43.21875 
Q 18.3125 43.21875 13.90625 47.609375 
Q 9.515625 52 9.515625 58.59375 
Q 9.515625 65.140625 14 69.671875 
Q 18.5 74.21875 25 74.21875 
z
" id="DejaVuSans-176"/>
      <path d="M 64.40625 67.28125 
L 64.40625 56.890625 
Q 59.421875 61.53125 53.78125 63.8125 
Q 48.140625 66.109375 41.796875 66.109375 
Q 29.296875 66.109375 22.65625 58.46875 
Q 16.015625 50.828125 16.015625 36.375 
Q 16.015625 21.96875 22.65625 14.328125 
Q 29.296875 6.6875 41.796875 6.6875 
Q 48.140625 6.6875 53.78125 8.984375 
Q 59.421875 11.28125 64.40625 15.921875 
L 64.40625 5.609375 
Q 59.234375 2.09375 53.4375 0.328125 
Q 47.65625 -1.421875 41.21875 -1.421875 
Q 24.65625 -1.421875 15.125 8.703125 
Q 5.609375 18.84375 5.609375 36.375 
Q 5.609375 53.953125 15.125 64.078125 
Q 24.65625 74.21875 41.21875 74.21875 
Q 47.75 74.21875 53.53125 72.484375 
Q 59.328125 70.75 64.40625 67.28125 
z
" id="DejaVuSans-67"/>
      <path d="M 8.015625 75.875 
L 15.828125 75.875 
Q 23.140625 64.359375 26.78125 53.3125 
Q 30.421875 42.28125 30.421875 31.390625 
Q 30.421875 20.453125 26.78125 9.375 
Q 23.140625 -1.703125 15.828125 -13.1875 
L 8.015625 -13.1875 
Q 14.5 -2 17.703125 9.0625 
Q 20.90625 20.125 20.90625 31.390625 
Q 20.90625 42.671875 17.703125 53.65625 
Q 14.5 64.65625 8.015625 75.875 
z
" id="DejaVuSans-41"/>
     </defs>
     <g transform="translate(168.995156 335.860562)scale(0.1 -0.1)">
      <use xlink:href="#DejaVuSans-65"/>
      <use x="68.330078" xlink:href="#DejaVuSans-118"/>
      <use x="127.509766" xlink:href="#DejaVuSans-103"/>
      <use x="190.986328" xlink:href="#DejaVuSans-32"/>
      <use x="222.773438" xlink:href="#DejaVuSans-77"/>
      <use x="309.052734" xlink:href="#DejaVuSans-97"/>
      <use x="370.332031" xlink:href="#DejaVuSans-120"/>
      <use x="429.511719" xlink:href="#DejaVuSans-32"/>
      <use x="461.298828" xlink:href="#DejaVuSans-84"/>
      <use x="522.117188" xlink:href="#DejaVuSans-101"/>
      <use x="583.640625" xlink:href="#DejaVuSans-109"/>
      <use x="681.052734" xlink:href="#DejaVuSans-112"/>
      <use x="744.529297" xlink:href="#DejaVuSans-101"/>
      <use x="806.052734" xlink:href="#DejaVuSans-114"/>
      <use x="847.166016" xlink:href="#DejaVuSans-97"/>
      <use x="908.445312" xlink:href="#DejaVuSans-116"/>
      <use x="947.654297" xlink:href="#DejaVuSans-117"/>
      <use x="1011.033203" xlink:href="#DejaVuSans-114"/>
      <use x="1052.115234" xlink:href="#DejaVuSans-101"/>
      <use x="1113.638672" xlink:href="#DejaVuSans-32"/>
      <use x="1145.425781" xlink:href="#DejaVuSans-40"/>
      <use x="1184.439453" xlink:href="#DejaVuSans-176"/>
      <use x="1234.439453" xlink:href="#DejaVuSans-67"/>
      <use x="1304.263672" xlink:href="#DejaVuSans-41"/>
     </g>
    </g>
   </g>
   <g id="matplotlib.axis_2">
    <g id="ytick_1">
     <g id="line2d_7">
      <defs>
       <path d="M 0 0 
L -3.5 0 
" id="mb31bee9b3f" style="stroke:#000000;stroke-width:0.8;"/>
      </defs>
      <g>
       <use style="stroke:#000000;stroke-width:0.8;" x="57.6" xlink:href="#mb31bee9b3f" y="295.507508"/>
      </g>
     </g>
     <g id="text_8">
      <!-- 0.000 -->
      <defs>
       <path d="M 10.6875 12.40625 
L 21 12.40625 
L 21 0 
L 10.6875 0 
z
" id="DejaVuSans-46"/>
      </defs>
      <g transform="translate(21.971875 299.306726)scale(0.1 -0.1)">
       <use xlink:href="#DejaVuSans-48"/>
       <use x="63.623047" xlink:href="#DejaVuSans-46"/>
       <use x="95.410156" xlink:href="#DejaVuSans-48"/>
       <use x="159.033203" xlink:href="#DejaVuSans-48"/>
       <use x="222.65625" xlink:href="#DejaVuSans-48"/>
      </g>
     </g>
    </g>
    <g id="ytick_2">
     <g id="line2d_8">
      <g>
       <use style="stroke:#000000;stroke-width:0.8;" x="57.6" xlink:href="#mb31bee9b3f" y="261.166458"/>
      </g>
     </g>
     <g id="text_9">
      <!-- 0.001 -->
      <g transform="translate(21.971875 264.965677)scale(0.1 -0.1)">
       <use xlink:href="#DejaVuSans-48"/>
       <use x="63.623047" xlink:href="#DejaVuSans-46"/>
       <use x="95.410156" xlink:href="#DejaVuSans-48"/>
       <use x="159.033203" xlink:href="#DejaVuSans-48"/>
       <use x="222.65625" xlink:href="#DejaVuSans-49"/>
      </g>
     </g>
    </g>
    <g id="ytick_3">
     <g id="line2d_9">
      <g>
       <use style="stroke:#000000;stroke-width:0.8;" x="57.6" xlink:href="#mb31bee9b3f" y="226.825408"/>
      </g>
     </g>
     <g id="text_10">
      <!-- 0.002 -->
      <g transform="translate(21.971875 230.624627)scale(0.1 -0.1)">
       <use xlink:href="#DejaVuSans-48"/>
       <use x="63.623047" xlink:href="#DejaVuSans-46"/>
       <use x="95.410156" xlink:href="#DejaVuSans-48"/>
       <use x="159.033203" xlink:href="#DejaVuSans-48"/>
       <use x="222.65625" xlink:href="#DejaVuSans-50"/>
      </g>
     </g>
    </g>
    <g id="ytick_4">
     <g id="line2d_10">
      <g>
       <use style="stroke:#000000;stroke-width:0.8;" x="57.6" xlink:href="#mb31bee9b3f" y="192.484358"/>
      </g>
     </g>
     <g id="text_11">
      <!-- 0.003 -->
      <g transform="translate(21.971875 196.283577)scale(0.1 -0.1)">
       <use xlink:href="#DejaVuSans-48"/>
       <use x="63.623047" xlink:href="#DejaVuSans-46"/>
       <use x="95.410156" xlink:href="#DejaVuSans-48"/>
       <use x="159.033203" xlink:href="#DejaVuSans-48"/>
       <use x="222.65625" xlink:href="#DejaVuSans-51"/>
      </g>
     </g>
    </g>
    <g id="ytick_5">
     <g id="line2d_11">
      <g>
       <use style="stroke:#000000;stroke-width:0.8;" x="57.6" xlink:href="#mb31bee9b3f" y="158.143308"/>
      </g>
     </g>
     <g id="text_12">
      <!-- 0.004 -->
      <defs>
       <path d="M 37.796875 64.3125 
L 12.890625 25.390625 
L 37.796875 25.390625 
z
M 35.203125 72.90625 
L 47.609375 72.90625 
L 47.609375 25.390625 
L 58.015625 25.390625 
L 58.015625 17.1875 
L 47.609375 17.1875 
L 47.609375 0 
L 37.796875 0 
L 37.796875 17.1875 
L 4.890625 17.1875 
L 4.890625 26.703125 
z
" id="DejaVuSans-52"/>
      </defs>
      <g transform="translate(21.971875 161.942527)scale(0.1 -0.1)">
       <use xlink:href="#DejaVuSans-48"/>
       <use x="63.623047" xlink:href="#DejaVuSans-46"/>
       <use x="95.410156" xlink:href="#DejaVuSans-48"/>
       <use x="159.033203" xlink:href="#DejaVuSans-48"/>
       <use x="222.65625" xlink:href="#DejaVuSans-52"/>
      </g>
     </g>
    </g>
    <g id="ytick_6">
     <g id="line2d_12">
      <g>
       <use style="stroke:#000000;stroke-width:0.8;" x="57.6" xlink:href="#mb31bee9b3f" y="123.802258"/>
      </g>
     </g>
     <g id="text_13">
      <!-- 0.005 -->
      <g transform="translate(21.971875 127.601477)scale(0.1 -0.1)">
       <use xlink:href="#DejaVuSans-48"/>
       <use x="63.623047" xlink:href="#DejaVuSans-46"/>
       <use x="95.410156" xlink:href="#DejaVuSans-48"/>
       <use x="159.033203" xlink:href="#DejaVuSans-48"/>
       <use x="222.65625" xlink:href="#DejaVuSans-53"/>
      </g>
     </g>
    </g>
    <g id="ytick_7">
     <g id="line2d_13">
      <g>
       <use style="stroke:#000000;stroke-width:0.8;" x="57.6" xlink:href="#mb31bee9b3f" y="89.461209"/>
      </g>
     </g>
     <g id="text_14">
      <!-- 0.006 -->
      <defs>
       <path d="M 33.015625 40.375 
Q 26.375 40.375 22.484375 35.828125 
Q 18.609375 31.296875 18.609375 23.390625 
Q 18.609375 15.53125 22.484375 10.953125 
Q 26.375 6.390625 33.015625 6.390625 
Q 39.65625 6.390625 43.53125 10.953125 
Q 47.40625 15.53125 47.40625 23.390625 
Q 47.40625 31.296875 43.53125 35.828125 
Q 39.65625 40.375 33.015625 40.375 
z
M 52.59375 71.296875 
L 52.59375 62.3125 
Q 48.875 64.0625 45.09375 64.984375 
Q 41.3125 65.921875 37.59375 65.921875 
Q 27.828125 65.921875 22.671875 59.328125 
Q 17.53125 52.734375 16.796875 39.40625 
Q 19.671875 43.65625 24.015625 45.921875 
Q 28.375 48.1875 33.59375 48.1875 
Q 44.578125 48.1875 50.953125 41.515625 
Q 57.328125 34.859375 57.328125 23.390625 
Q 57.328125 12.15625 50.6875 5.359375 
Q 44.046875 -1.421875 33.015625 -1.421875 
Q 20.359375 -1.421875 13.671875 8.265625 
Q 6.984375 17.96875 6.984375 36.375 
Q 6.984375 53.65625 15.1875 63.9375 
Q 23.390625 74.21875 37.203125 74.21875 
Q 40.921875 74.21875 44.703125 73.484375 
Q 48.484375 72.75 52.59375 71.296875 
z
" id="DejaVuSans-54"/>
      </defs>
      <g transform="translate(21.971875 93.260427)scale(0.1 -0.1)">
       <use xlink:href="#DejaVuSans-48"/>
       <use x="63.623047" xlink:href="#DejaVuSans-46"/>
       <use x="95.410156" xlink:href="#DejaVuSans-48"/>
       <use x="159.033203" xlink:href="#DejaVuSans-48"/>
       <use x="222.65625" xlink:href="#DejaVuSans-54"/>
      </g>
     </g>
    </g>
    <g id="ytick_8">
     <g id="line2d_14">
      <g>
       <use style="stroke:#000000;stroke-width:0.8;" x="57.6" xlink:href="#mb31bee9b3f" y="55.120159"/>
      </g>
     </g>
     <g id="text_15">
      <!-- 0.007 -->
      <defs>
       <path d="M 8.203125 72.90625 
L 55.078125 72.90625 
L 55.078125 68.703125 
L 28.609375 0 
L 18.3125 0 
L 43.21875 64.59375 
L 8.203125 64.59375 
z
" id="DejaVuSans-55"/>
      </defs>
      <g transform="translate(21.971875 58.919377)scale(0.1 -0.1)">
       <use xlink:href="#DejaVuSans-48"/>
       <use x="63.623047" xlink:href="#DejaVuSans-46"/>
       <use x="95.410156" xlink:href="#DejaVuSans-48"/>
       <use x="159.033203" xlink:href="#DejaVuSans-48"/>
       <use x="222.65625" xlink:href="#DejaVuSans-55"/>
      </g>
     </g>
    </g>
    <g id="text_16">
     <!-- Population Density (people/km²) -->
     <defs>
      <path d="M 19.671875 64.796875 
L 19.671875 37.40625 
L 32.078125 37.40625 
Q 38.96875 37.40625 42.71875 40.96875 
Q 46.484375 44.53125 46.484375 51.125 
Q 46.484375 57.671875 42.71875 61.234375 
Q 38.96875 64.796875 32.078125 64.796875 
z
M 9.8125 72.90625 
L 32.078125 72.90625 
Q 44.34375 72.90625 50.609375 67.359375 
Q 56.890625 61.8125 56.890625 51.125 
Q 56.890625 40.328125 50.609375 34.8125 
Q 44.34375 29.296875 32.078125 29.296875 
L 19.671875 29.296875 
L 19.671875 0 
L 9.8125 0 
z
" id="DejaVuSans-80"/>
      <path d="M 30.609375 48.390625 
Q 23.390625 48.390625 19.1875 42.75 
Q 14.984375 37.109375 14.984375 27.296875 
Q 14.984375 17.484375 19.15625 11.84375 
Q 23.34375 6.203125 30.609375 6.203125 
Q 37.796875 6.203125 41.984375 11.859375 
Q 46.1875 17.53125 46.1875 27.296875 
Q 46.1875 37.015625 41.984375 42.703125 
Q 37.796875 48.390625 30.609375 48.390625 
z
M 30.609375 56 
Q 42.328125 56 49.015625 48.375 
Q 55.71875 40.765625 55.71875 27.296875 
Q 55.71875 13.875 49.015625 6.21875 
Q 42.328125 -1.421875 30.609375 -1.421875 
Q 18.84375 -1.421875 12.171875 6.21875 
Q 5.515625 13.875 5.515625 27.296875 
Q 5.515625 40.765625 12.171875 48.375 
Q 18.84375 56 30.609375 56 
z
" id="DejaVuSans-111"/>
      <path d="M 9.421875 75.984375 
L 18.40625 75.984375 
L 18.40625 0 
L 9.421875 0 
z
" id="DejaVuSans-108"/>
      <path d="M 9.421875 54.6875 
L 18.40625 54.6875 
L 18.40625 0 
L 9.421875 0 
z
M 9.421875 75.984375 
L 18.40625 75.984375 
L 18.40625 64.59375 
L 9.421875 64.59375 
z
" id="DejaVuSans-105"/>
      <path d="M 54.890625 33.015625 
L 54.890625 0 
L 45.90625 0 
L 45.90625 32.71875 
Q 45.90625 40.484375 42.875 44.328125 
Q 39.84375 48.1875 33.796875 48.1875 
Q 26.515625 48.1875 22.3125 43.546875 
Q 18.109375 38.921875 18.109375 30.90625 
L 18.109375 0 
L 9.078125 0 
L 9.078125 54.6875 
L 18.109375 54.6875 
L 18.109375 46.1875 
Q 21.34375 51.125 25.703125 53.5625 
Q 30.078125 56 35.796875 56 
Q 45.21875 56 50.046875 50.171875 
Q 54.890625 44.34375 54.890625 33.015625 
z
" id="DejaVuSans-110"/>
      <path d="M 19.671875 64.796875 
L 19.671875 8.109375 
L 31.59375 8.109375 
Q 46.6875 8.109375 53.6875 14.9375 
Q 60.6875 21.78125 60.6875 36.53125 
Q 60.6875 51.171875 53.6875 57.984375 
Q 46.6875 64.796875 31.59375 64.796875 
z
M 9.8125 72.90625 
L 30.078125 72.90625 
Q 51.265625 72.90625 61.171875 64.09375 
Q 71.09375 55.28125 71.09375 36.53125 
Q 71.09375 17.671875 61.125 8.828125 
Q 51.171875 0 30.078125 0 
L 9.8125 0 
z
" id="DejaVuSans-68"/>
      <path d="M 44.28125 53.078125 
L 44.28125 44.578125 
Q 40.484375 46.53125 36.375 47.5 
Q 32.28125 48.484375 27.875 48.484375 
Q 21.1875 48.484375 17.84375 46.4375 
Q 14.5 44.390625 14.5 40.28125 
Q 14.5 37.15625 16.890625 35.375 
Q 19.28125 33.59375 26.515625 31.984375 
L 29.59375 31.296875 
Q 39.15625 29.25 43.1875 25.515625 
Q 47.21875 21.78125 47.21875 15.09375 
Q 47.21875 7.46875 41.1875 3.015625 
Q 35.15625 -1.421875 24.609375 -1.421875 
Q 20.21875 -1.421875 15.453125 -0.5625 
Q 10.6875 0.296875 5.421875 2 
L 5.421875 11.28125 
Q 10.40625 8.6875 15.234375 7.390625 
Q 20.0625 6.109375 24.8125 6.109375 
Q 31.15625 6.109375 34.5625 8.28125 
Q 37.984375 10.453125 37.984375 14.40625 
Q 37.984375 18.0625 35.515625 20.015625 
Q 33.0625 21.96875 24.703125 23.78125 
L 21.578125 24.515625 
Q 13.234375 26.265625 9.515625 29.90625 
Q 5.8125 33.546875 5.8125 39.890625 
Q 5.8125 47.609375 11.28125 51.796875 
Q 16.75 56 26.8125 56 
Q 31.78125 56 36.171875 55.265625 
Q 40.578125 54.546875 44.28125 53.078125 
z
" id="DejaVuSans-115"/>
      <path d="M 32.171875 -5.078125 
Q 28.375 -14.84375 24.75 -17.8125 
Q 21.140625 -20.796875 15.09375 -20.796875 
L 7.90625 -20.796875 
L 7.90625 -13.28125 
L 13.1875 -13.28125 
Q 16.890625 -13.28125 18.9375 -11.515625 
Q 21 -9.765625 23.484375 -3.21875 
L 25.09375 0.875 
L 2.984375 54.6875 
L 12.5 54.6875 
L 29.59375 11.921875 
L 46.6875 54.6875 
L 56.203125 54.6875 
z
" id="DejaVuSans-121"/>
      <path d="M 25.390625 72.90625 
L 33.6875 72.90625 
L 8.296875 -9.28125 
L 0 -9.28125 
z
" id="DejaVuSans-47"/>
      <path d="M 9.078125 75.984375 
L 18.109375 75.984375 
L 18.109375 31.109375 
L 44.921875 54.6875 
L 56.390625 54.6875 
L 27.390625 29.109375 
L 57.625 0 
L 45.90625 0 
L 18.109375 26.703125 
L 18.109375 0 
L 9.078125 0 
z
" id="DejaVuSans-107"/>
      <path d="M 13.09375 38.1875 
L 33.796875 38.1875 
L 33.796875 32.625 
L 4.59375 32.625 
L 4.59375 37.984375 
Q 6.25 39.5 9.328125 42.234375 
Q 26.125 57.125 26.125 61.71875 
Q 26.125 64.9375 23.578125 66.90625 
Q 21.046875 68.890625 16.890625 68.890625 
Q 14.359375 68.890625 11.375 68.03125 
Q 8.40625 67.1875 4.890625 65.484375 
L 4.890625 71.484375 
Q 8.640625 72.859375 11.890625 73.53125 
Q 15.140625 74.21875 17.921875 74.21875 
Q 25 74.21875 29.25 71 
Q 33.5 67.78125 33.5 62.5 
Q 33.5 55.71875 17.328125 41.84375 
Q 14.59375 39.5 13.09375 38.1875 
z
" id="DejaVuSans-178"/>
     </defs>
     <g transform="translate(15.892187 255.466281)rotate(-90)scale(0.1 -0.1)">
      <use xlink:href="#DejaVuSans-80"/>
      <use x="60.255859" xlink:href="#DejaVuSans-111"/>
      <use x="121.4375" xlink:href="#DejaVuSans-112"/>
      <use x="184.914062" xlink:href="#DejaVuSans-117"/>
      <use x="248.292969" xlink:href="#DejaVuSans-108"/>
      <use x="276.076172" xlink:href="#DejaVuSans-97"/>
      <use x="337.355469" xlink:href="#DejaVuSans-116"/>
      <use x="376.564453" xlink:href="#DejaVuSans-105"/>
      <use x="404.347656" xlink:href="#DejaVuSans-111"/>
      <use x="465.529297" xlink:href="#DejaVuSans-110"/>
      <use x="528.908203" xlink:href="#DejaVuSans-32"/>
      <use x="560.695312" xlink:href="#DejaVuSans-68"/>
      <use x="637.697266" xlink:href="#DejaVuSans-101"/>
      <use x="699.220703" xlink:href="#DejaVuSans-110"/>
      <use x="762.599609" xlink:href="#DejaVuSans-115"/>
      <use x="814.699219" xlink:href="#DejaVuSans-105"/>
      <use x="842.482422" xlink:href="#DejaVuSans-116"/>
      <use x="881.691406" xlink:href="#DejaVuSans-121"/>
      <use x="940.871094" xlink:href="#DejaVuSans-32"/>
      <use x="972.658203" xlink:href="#DejaVuSans-40"/>
      <use x="1011.671875" xlink:href="#DejaVuSans-112"/>
      <use x="1075.148438" xlink:href="#DejaVuSans-101"/>
      <use x="1136.671875" xlink:href="#DejaVuSans-111"/>
      <use x="1197.853516" xlink:href="#DejaVuSans-112"/>
      <use x="1261.330078" xlink:href="#DejaVuSans-108"/>
      <use x="1289.113281" xlink:href="#DejaVuSans-101"/>
      <use x="1350.636719" xlink:href="#DejaVuSans-47"/>
      <use x="1384.328125" xlink:href="#DejaVuSans-107"/>
      <use x="1442.238281" xlink:href="#DejaVuSans-109"/>
      <use x="1539.650391" xlink:href="#DejaVuSans-178"/>
      <use x="1579.738281" xlink:href="#DejaVuSans-41"/>
     </g>
    </g>
   </g>
   <g id="line2d_15">
    <defs>
     <path d="M 0 1.5 
C 0.397805 1.5 0.77937 1.341951 1.06066 1.06066 
C 1.341951 0.77937 1.5 0.397805 1.5 0 
C 1.5 -0.397805 1.341951 -0.77937 1.06066 -1.06066 
C 0.77937 -1.341951 0.397805 -1.5 0 -1.5 
C -0.397805 -1.5 -0.77937 -1.341951 -1.06066 -1.06066 
C -1.341951 -0.77937 -1.5 -0.397805 -1.5 0 
C -1.5 0.397805 -1.341951 0.77937 -1.06066 1.06066 
C -0.77937 1.341951 -0.397805 1.5 0 1.5 
z
" id="m9cf8798a33" style="stroke:#0000ff;"/>
    </defs>
    <g clip-path="url(#pda09206d4f)">
     <use style="fill:#0000ff;stroke:#0000ff;" x="397.280379" xlink:href="#m9cf8798a33" y="249.867312"/>
     <use style="fill:#0000ff;stroke:#0000ff;" x="392.452802" xlink:href="#m9cf8798a33" y="254.752017"/>
     <use style="fill:#0000ff;stroke:#0000ff;" x="398.487273" xlink:href="#m9cf8798a33" y="283.300273"/>
     <use style="fill:#0000ff;stroke:#0000ff;" x="282.625428" xlink:href="#m9cf8798a33" y="210.908231"/>
     <use style="fill:#0000ff;stroke:#0000ff;" x="398.487273" xlink:href="#m9cf8798a33" y="263.879401"/>
     <use style="fill:#0000ff;stroke:#0000ff;" x="393.659696" xlink:href="#m9cf8798a33" y="289.378489"/>
     <use style="fill:#0000ff;stroke:#0000ff;" x="381.590754" xlink:href="#m9cf8798a33" y="242.825994"/>
     <use style="fill:#0000ff;stroke:#0000ff;" x="328.487408" xlink:href="#m9cf8798a33" y="244.686639"/>
     <use style="fill:#0000ff;stroke:#0000ff;" x="396.073484" xlink:href="#m9cf8798a33" y="115.291053"/>
     <use style="fill:#0000ff;stroke:#0000ff;" x="196.935938" xlink:href="#m9cf8798a33" y="154.347626"/>
     <use style="fill:#0000ff;stroke:#0000ff;" x="386.418331" xlink:href="#m9cf8798a33" y="280.732552"/>
     <use style="fill:#0000ff;stroke:#0000ff;" x="398.487273" xlink:href="#m9cf8798a33" y="287.33359"/>
     <use style="fill:#0000ff;stroke:#0000ff;" x="375.556283" xlink:href="#m9cf8798a33" y="291.083456"/>
     <use style="fill:#0000ff;stroke:#0000ff;" x="301.935735" xlink:href="#m9cf8798a33" y="232.421496"/>
     <use style="fill:#0000ff;stroke:#0000ff;" x="388.832119" xlink:href="#m9cf8798a33" y="262.994121"/>
     <use style="fill:#0000ff;stroke:#0000ff;" x="394.86659" xlink:href="#m9cf8798a33" y="293.774328"/>
     <use style="fill:#0000ff;stroke:#0000ff;" x="386.418331" xlink:href="#m9cf8798a33" y="279.818695"/>
     <use style="fill:#0000ff;stroke:#0000ff;" x="396.073484" xlink:href="#m9cf8798a33" y="240.529466"/>
     <use style="fill:#0000ff;stroke:#0000ff;" x="398.487273" xlink:href="#m9cf8798a33" y="246.768192"/>
     <use style="fill:#0000ff;stroke:#0000ff;" x="161.936005" xlink:href="#m9cf8798a33" y="211.716873"/>
     <use style="fill:#0000ff;stroke:#0000ff;" x="393.659696" xlink:href="#m9cf8798a33" y="284.590352"/>
     <use style="fill:#0000ff;stroke:#0000ff;" x="398.487273" xlink:href="#m9cf8798a33" y="292.512329"/>
     <use style="fill:#0000ff;stroke:#0000ff;" x="398.487273" xlink:href="#m9cf8798a33" y="291.898528"/>
     <use style="fill:#0000ff;stroke:#0000ff;" x="392.452802" xlink:href="#m9cf8798a33" y="287.192062"/>
     <use style="fill:#0000ff;stroke:#0000ff;" x="386.418331" xlink:href="#m9cf8798a33" y="146.610657"/>
     <use style="fill:#0000ff;stroke:#0000ff;" x="195.729044" xlink:href="#m9cf8798a33" y="294.476231"/>
     <use style="fill:#0000ff;stroke:#0000ff;" x="387.625225" xlink:href="#m9cf8798a33" y="295.488"/>
     <use style="fill:#0000ff;stroke:#0000ff;" x="247.625495" xlink:href="#m9cf8798a33" y="271.531731"/>
     <use style="fill:#0000ff;stroke:#0000ff;" x="210.211774" xlink:href="#m9cf8798a33" y="193.978194"/>
     <use style="fill:#0000ff;stroke:#0000ff;" x="392.452802" xlink:href="#m9cf8798a33" y="295.321563"/>
     <use style="fill:#0000ff;stroke:#0000ff;" x="182.453207" xlink:href="#m9cf8798a33" y="267.769077"/>
     <use style="fill:#0000ff;stroke:#0000ff;" x="139.005015" xlink:href="#m9cf8798a33" y="263.532868"/>
     <use style="fill:#0000ff;stroke:#0000ff;" x="157.108429" xlink:href="#m9cf8798a33" y="293.817835"/>
     <use style="fill:#0000ff;stroke:#0000ff;" x="153.487746" xlink:href="#m9cf8798a33" y="287.740936"/>
     <use style="fill:#0000ff;stroke:#0000ff;" x="393.659696" xlink:href="#m9cf8798a33" y="287.647963"/>
     <use style="fill:#0000ff;stroke:#0000ff;" x="393.659696" xlink:href="#m9cf8798a33" y="288.610512"/>
     <use style="fill:#0000ff;stroke:#0000ff;" x="157.108429" xlink:href="#m9cf8798a33" y="295.039823"/>
     <use style="fill:#0000ff;stroke:#0000ff;" x="391.245907" xlink:href="#m9cf8798a33" y="294.723928"/>
     <use style="fill:#0000ff;stroke:#0000ff;" x="210.211774" xlink:href="#m9cf8798a33" y="280.521972"/>
     <use style="fill:#0000ff;stroke:#0000ff;" x="391.245907" xlink:href="#m9cf8798a33" y="177.955336"/>
     <use style="fill:#0000ff;stroke:#0000ff;" x="139.005015" xlink:href="#m9cf8798a33" y="277.816144"/>
     <use style="fill:#0000ff;stroke:#0000ff;" x="390.039013" xlink:href="#m9cf8798a33" y="257.775483"/>
     <use style="fill:#0000ff;stroke:#0000ff;" x="210.211774" xlink:href="#m9cf8798a33" y="248.057747"/>
     <use style="fill:#0000ff;stroke:#0000ff;" x="224.694505" xlink:href="#m9cf8798a33" y="292.316806"/>
     <use style="fill:#0000ff;stroke:#0000ff;" x="392.452802" xlink:href="#m9cf8798a33" y="295.265572"/>
     <use style="fill:#0000ff;stroke:#0000ff;" x="385.211436" xlink:href="#m9cf8798a33" y="291.095499"/>
     <use style="fill:#0000ff;stroke:#0000ff;" x="161.936005" xlink:href="#m9cf8798a33" y="250.177322"/>
     <use style="fill:#0000ff;stroke:#0000ff;" x="392.452802" xlink:href="#m9cf8798a33" y="295.095319"/>
     <use style="fill:#0000ff;stroke:#0000ff;" x="210.211774" xlink:href="#m9cf8798a33" y="270.626971"/>
     <use style="fill:#0000ff;stroke:#0000ff;" x="391.245907" xlink:href="#m9cf8798a33" y="295.192406"/>
     <use style="fill:#0000ff;stroke:#0000ff;" x="394.86659" xlink:href="#m9cf8798a33" y="251.344918"/>
     <use style="fill:#0000ff;stroke:#0000ff;" x="394.86659" xlink:href="#m9cf8798a33" y="249.949811"/>
     <use style="fill:#0000ff;stroke:#0000ff;" x="394.86659" xlink:href="#m9cf8798a33" y="250.834185"/>
     <use style="fill:#0000ff;stroke:#0000ff;" x="163.1429" xlink:href="#m9cf8798a33" y="293.588551"/>
     <use style="fill:#0000ff;stroke:#0000ff;" x="398.487273" xlink:href="#m9cf8798a33" y="53.637723"/>
     <use style="fill:#0000ff;stroke:#0000ff;" x="398.487273" xlink:href="#m9cf8798a33" y="287.093402"/>
     <use style="fill:#0000ff;stroke:#0000ff;" x="393.659696" xlink:href="#m9cf8798a33" y="141.248646"/>
     <use style="fill:#0000ff;stroke:#0000ff;" x="398.487273" xlink:href="#m9cf8798a33" y="249.101359"/>
     <use style="fill:#0000ff;stroke:#0000ff;" x="398.487273" xlink:href="#m9cf8798a33" y="257.889968"/>
     <use style="fill:#0000ff;stroke:#0000ff;" x="390.039013" xlink:href="#m9cf8798a33" y="149.404277"/>
     <use style="fill:#0000ff;stroke:#0000ff;" x="398.487273" xlink:href="#m9cf8798a33" y="254.563372"/>
     <use style="fill:#0000ff;stroke:#0000ff;" x="398.487273" xlink:href="#m9cf8798a33" y="245.841653"/>
     <use style="fill:#0000ff;stroke:#0000ff;" x="398.487273" xlink:href="#m9cf8798a33" y="254.332073"/>
     <use style="fill:#0000ff;stroke:#0000ff;" x="398.487273" xlink:href="#m9cf8798a33" y="221.793775"/>
     <use style="fill:#0000ff;stroke:#0000ff;" x="398.487273" xlink:href="#m9cf8798a33" y="250.979046"/>
     <use style="fill:#0000ff;stroke:#0000ff;" x="398.487273" xlink:href="#m9cf8798a33" y="283.049058"/>
     <use style="fill:#0000ff;stroke:#0000ff;" x="398.487273" xlink:href="#m9cf8798a33" y="53.568"/>
     <use style="fill:#0000ff;stroke:#0000ff;" x="398.487273" xlink:href="#m9cf8798a33" y="248.735102"/>
     <use style="fill:#0000ff;stroke:#0000ff;" x="398.487273" xlink:href="#m9cf8798a33" y="265.098731"/>
     <use style="fill:#0000ff;stroke:#0000ff;" x="371.9356" xlink:href="#m9cf8798a33" y="264.666762"/>
     <use style="fill:#0000ff;stroke:#0000ff;" x="398.487273" xlink:href="#m9cf8798a33" y="262.930877"/>
     <use style="fill:#0000ff;stroke:#0000ff;" x="376.763177" xlink:href="#m9cf8798a33" y="238.862458"/>
     <use style="fill:#0000ff;stroke:#0000ff;" x="384.004542" xlink:href="#m9cf8798a33" y="237.120612"/>
     <use style="fill:#0000ff;stroke:#0000ff;" x="398.487273" xlink:href="#m9cf8798a33" y="261.920181"/>
     <use style="fill:#0000ff;stroke:#0000ff;" x="398.487273" xlink:href="#m9cf8798a33" y="206.376175"/>
     <use style="fill:#0000ff;stroke:#0000ff;" x="398.487273" xlink:href="#m9cf8798a33" y="198.481215"/>
     <use style="fill:#0000ff;stroke:#0000ff;" x="398.487273" xlink:href="#m9cf8798a33" y="232.371023"/>
     <use style="fill:#0000ff;stroke:#0000ff;" x="391.245907" xlink:href="#m9cf8798a33" y="278.720718"/>
     <use style="fill:#0000ff;stroke:#0000ff;" x="398.487273" xlink:href="#m9cf8798a33" y="269.03605"/>
     <use style="fill:#0000ff;stroke:#0000ff;" x="397.280379" xlink:href="#m9cf8798a33" y="242.18974"/>
     <use style="fill:#0000ff;stroke:#0000ff;" x="398.487273" xlink:href="#m9cf8798a33" y="283.110603"/>
     <use style="fill:#0000ff;stroke:#0000ff;" x="398.487273" xlink:href="#m9cf8798a33" y="238.511113"/>
     <use style="fill:#0000ff;stroke:#0000ff;" x="394.86659" xlink:href="#m9cf8798a33" y="270.251113"/>
     <use style="fill:#0000ff;stroke:#0000ff;" x="398.487273" xlink:href="#m9cf8798a33" y="205.983172"/>
     <use style="fill:#0000ff;stroke:#0000ff;" x="384.004542" xlink:href="#m9cf8798a33" y="212.61639"/>
     <use style="fill:#0000ff;stroke:#0000ff;" x="398.487273" xlink:href="#m9cf8798a33" y="257.322275"/>
     <use style="fill:#0000ff;stroke:#0000ff;" x="398.487273" xlink:href="#m9cf8798a33" y="266.312788"/>
     <use style="fill:#0000ff;stroke:#0000ff;" x="398.487273" xlink:href="#m9cf8798a33" y="237.107169"/>
     <use style="fill:#0000ff;stroke:#0000ff;" x="398.487273" xlink:href="#m9cf8798a33" y="231.242262"/>
     <use style="fill:#0000ff;stroke:#0000ff;" x="330.901196" xlink:href="#m9cf8798a33" y="251.780985"/>
     <use style="fill:#0000ff;stroke:#0000ff;" x="394.86659" xlink:href="#m9cf8798a33" y="276.398378"/>
     <use style="fill:#0000ff;stroke:#0000ff;" x="392.452802" xlink:href="#m9cf8798a33" y="251.199441"/>
     <use style="fill:#0000ff;stroke:#0000ff;" x="398.487273" xlink:href="#m9cf8798a33" y="176.350976"/>
     <use style="fill:#0000ff;stroke:#0000ff;" x="398.487273" xlink:href="#m9cf8798a33" y="267.178387"/>
     <use style="fill:#0000ff;stroke:#0000ff;" x="398.487273" xlink:href="#m9cf8798a33" y="255.226785"/>
     <use style="fill:#0000ff;stroke:#0000ff;" x="384.004542" xlink:href="#m9cf8798a33" y="195.314175"/>
     <use style="fill:#0000ff;stroke:#0000ff;" x="398.487273" xlink:href="#m9cf8798a33" y="253.981767"/>
     <use style="fill:#0000ff;stroke:#0000ff;" x="336.935667" xlink:href="#m9cf8798a33" y="223.62842"/>
     <use style="fill:#0000ff;stroke:#0000ff;" x="392.452802" xlink:href="#m9cf8798a33" y="204.702327"/>
     <use style="fill:#0000ff;stroke:#0000ff;" x="398.487273" xlink:href="#m9cf8798a33" y="267.700765"/>
     <use style="fill:#0000ff;stroke:#0000ff;" x="394.86659" xlink:href="#m9cf8798a33" y="246.907723"/>
     <use style="fill:#0000ff;stroke:#0000ff;" x="398.487273" xlink:href="#m9cf8798a33" y="280.9482"/>
     <use style="fill:#0000ff;stroke:#0000ff;" x="398.487273" xlink:href="#m9cf8798a33" y="264.516433"/>
     <use style="fill:#0000ff;stroke:#0000ff;" x="398.487273" xlink:href="#m9cf8798a33" y="231.710487"/>
     <use style="fill:#0000ff;stroke:#0000ff;" x="398.487273" xlink:href="#m9cf8798a33" y="268.491227"/>
     <use style="fill:#0000ff;stroke:#0000ff;" x="393.659696" xlink:href="#m9cf8798a33" y="263.425079"/>
     <use style="fill:#0000ff;stroke:#0000ff;" x="398.487273" xlink:href="#m9cf8798a33" y="267.778944"/>
     <use style="fill:#0000ff;stroke:#0000ff;" x="398.487273" xlink:href="#m9cf8798a33" y="219.783167"/>
     <use style="fill:#0000ff;stroke:#0000ff;" x="396.073484" xlink:href="#m9cf8798a33" y="207.75908"/>
     <use style="fill:#0000ff;stroke:#0000ff;" x="397.280379" xlink:href="#m9cf8798a33" y="139.138345"/>
     <use style="fill:#0000ff;stroke:#0000ff;" x="199.349726" xlink:href="#m9cf8798a33" y="286.392696"/>
     <use style="fill:#0000ff;stroke:#0000ff;" x="350.211504" xlink:href="#m9cf8798a33" y="254.655452"/>
     <use style="fill:#0000ff;stroke:#0000ff;" x="398.487273" xlink:href="#m9cf8798a33" y="281.769864"/>
     <use style="fill:#0000ff;stroke:#0000ff;" x="394.86659" xlink:href="#m9cf8798a33" y="232.08757"/>
     <use style="fill:#0000ff;stroke:#0000ff;" x="396.073484" xlink:href="#m9cf8798a33" y="236.041884"/>
     <use style="fill:#0000ff;stroke:#0000ff;" x="381.590754" xlink:href="#m9cf8798a33" y="225.95017"/>
     <use style="fill:#0000ff;stroke:#0000ff;" x="398.487273" xlink:href="#m9cf8798a33" y="246.008287"/>
     <use style="fill:#0000ff;stroke:#0000ff;" x="396.073484" xlink:href="#m9cf8798a33" y="293.495701"/>
     <use style="fill:#0000ff;stroke:#0000ff;" x="398.487273" xlink:href="#m9cf8798a33" y="263.784624"/>
     <use style="fill:#0000ff;stroke:#0000ff;" x="396.073484" xlink:href="#m9cf8798a33" y="267.247017"/>
     <use style="fill:#0000ff;stroke:#0000ff;" x="398.487273" xlink:href="#m9cf8798a33" y="245.429718"/>
     <use style="fill:#0000ff;stroke:#0000ff;" x="398.487273" xlink:href="#m9cf8798a33" y="152.314924"/>
     <use style="fill:#0000ff;stroke:#0000ff;" x="398.487273" xlink:href="#m9cf8798a33" y="255.822418"/>
     <use style="fill:#0000ff;stroke:#0000ff;" x="394.86659" xlink:href="#m9cf8798a33" y="250.237281"/>
     <use style="fill:#0000ff;stroke:#0000ff;" x="398.487273" xlink:href="#m9cf8798a33" y="266.964994"/>
     <use style="fill:#0000ff;stroke:#0000ff;" x="397.280379" xlink:href="#m9cf8798a33" y="233.426118"/>
     <use style="fill:#0000ff;stroke:#0000ff;" x="398.487273" xlink:href="#m9cf8798a33" y="245.549945"/>
     <use style="fill:#0000ff;stroke:#0000ff;" x="398.487273" xlink:href="#m9cf8798a33" y="265.157341"/>
     <use style="fill:#0000ff;stroke:#0000ff;" x="398.487273" xlink:href="#m9cf8798a33" y="139.77095"/>
     <use style="fill:#0000ff;stroke:#0000ff;" x="396.073484" xlink:href="#m9cf8798a33" y="267.543557"/>
     <use style="fill:#0000ff;stroke:#0000ff;" x="357.452869" xlink:href="#m9cf8798a33" y="271.062828"/>
     <use style="fill:#0000ff;stroke:#0000ff;" x="398.487273" xlink:href="#m9cf8798a33" y="259.437467"/>
     <use style="fill:#0000ff;stroke:#0000ff;" x="393.659696" xlink:href="#m9cf8798a33" y="230.118361"/>
     <use style="fill:#0000ff;stroke:#0000ff;" x="386.418331" xlink:href="#m9cf8798a33" y="262.102609"/>
     <use style="fill:#0000ff;stroke:#0000ff;" x="398.487273" xlink:href="#m9cf8798a33" y="269.339735"/>
     <use style="fill:#0000ff;stroke:#0000ff;" x="330.901196" xlink:href="#m9cf8798a33" y="241.528351"/>
     <use style="fill:#0000ff;stroke:#0000ff;" x="330.901196" xlink:href="#m9cf8798a33" y="279.880066"/>
     <use style="fill:#0000ff;stroke:#0000ff;" x="340.55635" xlink:href="#m9cf8798a33" y="241.634236"/>
     <use style="fill:#0000ff;stroke:#0000ff;" x="398.487273" xlink:href="#m9cf8798a33" y="267.300631"/>
     <use style="fill:#0000ff;stroke:#0000ff;" x="397.280379" xlink:href="#m9cf8798a33" y="261.476647"/>
     <use style="fill:#0000ff;stroke:#0000ff;" x="183.660101" xlink:href="#m9cf8798a33" y="267.134817"/>
     <use style="fill:#0000ff;stroke:#0000ff;" x="398.487273" xlink:href="#m9cf8798a33" y="253.146765"/>
     <use style="fill:#0000ff;stroke:#0000ff;" x="397.280379" xlink:href="#m9cf8798a33" y="286.614091"/>
     <use style="fill:#0000ff;stroke:#0000ff;" x="330.901196" xlink:href="#m9cf8798a33" y="259.140267"/>
     <use style="fill:#0000ff;stroke:#0000ff;" x="398.487273" xlink:href="#m9cf8798a33" y="242.828941"/>
     <use style="fill:#0000ff;stroke:#0000ff;" x="393.659696" xlink:href="#m9cf8798a33" y="262.210765"/>
     <use style="fill:#0000ff;stroke:#0000ff;" x="398.487273" xlink:href="#m9cf8798a33" y="257.04356"/>
     <use style="fill:#0000ff;stroke:#0000ff;" x="398.487273" xlink:href="#m9cf8798a33" y="248.773977"/>
     <use style="fill:#0000ff;stroke:#0000ff;" x="398.487273" xlink:href="#m9cf8798a33" y="261.441007"/>
     <use style="fill:#0000ff;stroke:#0000ff;" x="396.073484" xlink:href="#m9cf8798a33" y="248.841204"/>
     <use style="fill:#0000ff;stroke:#0000ff;" x="398.487273" xlink:href="#m9cf8798a33" y="249.355403"/>
     <use style="fill:#0000ff;stroke:#0000ff;" x="398.487273" xlink:href="#m9cf8798a33" y="262.851946"/>
     <use style="fill:#0000ff;stroke:#0000ff;" x="398.487273" xlink:href="#m9cf8798a33" y="223.598595"/>
     <use style="fill:#0000ff;stroke:#0000ff;" x="398.487273" xlink:href="#m9cf8798a33" y="276.571481"/>
     <use style="fill:#0000ff;stroke:#0000ff;" x="398.487273" xlink:href="#m9cf8798a33" y="253.310299"/>
     <use style="fill:#0000ff;stroke:#0000ff;" x="398.487273" xlink:href="#m9cf8798a33" y="232.073481"/>
     <use style="fill:#0000ff;stroke:#0000ff;" x="398.487273" xlink:href="#m9cf8798a33" y="220.26273"/>
     <use style="fill:#0000ff;stroke:#0000ff;" x="394.86659" xlink:href="#m9cf8798a33" y="226.033912"/>
     <use style="fill:#0000ff;stroke:#0000ff;" x="396.073484" xlink:href="#m9cf8798a33" y="245.699713"/>
     <use style="fill:#0000ff;stroke:#0000ff;" x="346.590821" xlink:href="#m9cf8798a33" y="277.160447"/>
     <use style="fill:#0000ff;stroke:#0000ff;" x="398.487273" xlink:href="#m9cf8798a33" y="212.390913"/>
     <use style="fill:#0000ff;stroke:#0000ff;" x="398.487273" xlink:href="#m9cf8798a33" y="167.560329"/>
     <use style="fill:#0000ff;stroke:#0000ff;" x="398.487273" xlink:href="#m9cf8798a33" y="216.495146"/>
     <use style="fill:#0000ff;stroke:#0000ff;" x="398.487273" xlink:href="#m9cf8798a33" y="278.039959"/>
     <use style="fill:#0000ff;stroke:#0000ff;" x="398.487273" xlink:href="#m9cf8798a33" y="267.509789"/>
     <use style="fill:#0000ff;stroke:#0000ff;" x="398.487273" xlink:href="#m9cf8798a33" y="273.538634"/>
     <use style="fill:#0000ff;stroke:#0000ff;" x="392.452802" xlink:href="#m9cf8798a33" y="253.179623"/>
     <use style="fill:#0000ff;stroke:#0000ff;" x="398.487273" xlink:href="#m9cf8798a33" y="283.446895"/>
     <use style="fill:#0000ff;stroke:#0000ff;" x="398.487273" xlink:href="#m9cf8798a33" y="286.996515"/>
     <use style="fill:#0000ff;stroke:#0000ff;" x="398.487273" xlink:href="#m9cf8798a33" y="262.536878"/>
     <use style="fill:#0000ff;stroke:#0000ff;" x="398.487273" xlink:href="#m9cf8798a33" y="273.63295"/>
     <use style="fill:#0000ff;stroke:#0000ff;" x="359.866658" xlink:href="#m9cf8798a33" y="273.115872"/>
     <use style="fill:#0000ff;stroke:#0000ff;" x="355.039081" xlink:href="#m9cf8798a33" y="284.400346"/>
     <use style="fill:#0000ff;stroke:#0000ff;" x="398.487273" xlink:href="#m9cf8798a33" y="279.277855"/>
     <use style="fill:#0000ff;stroke:#0000ff;" x="398.487273" xlink:href="#m9cf8798a33" y="272.271834"/>
     <use style="fill:#0000ff;stroke:#0000ff;" x="396.073484" xlink:href="#m9cf8798a33" y="266.828585"/>
     <use style="fill:#0000ff;stroke:#0000ff;" x="396.073484" xlink:href="#m9cf8798a33" y="265.100551"/>
     <use style="fill:#0000ff;stroke:#0000ff;" x="385.211436" xlink:href="#m9cf8798a33" y="272.739824"/>
     <use style="fill:#0000ff;stroke:#0000ff;" x="397.280379" xlink:href="#m9cf8798a33" y="276.853692"/>
     <use style="fill:#0000ff;stroke:#0000ff;" x="397.280379" xlink:href="#m9cf8798a33" y="232.641258"/>
     <use style="fill:#0000ff;stroke:#0000ff;" x="252.453072" xlink:href="#m9cf8798a33" y="278.9174"/>
     <use style="fill:#0000ff;stroke:#0000ff;" x="330.901196" xlink:href="#m9cf8798a33" y="242.16778"/>
     <use style="fill:#0000ff;stroke:#0000ff;" x="119.694708" xlink:href="#m9cf8798a33" y="248.662978"/>
     <use style="fill:#0000ff;stroke:#0000ff;" x="397.280379" xlink:href="#m9cf8798a33" y="275.355252"/>
     <use style="fill:#0000ff;stroke:#0000ff;" x="398.487273" xlink:href="#m9cf8798a33" y="278.457894"/>
     <use style="fill:#0000ff;stroke:#0000ff;" x="398.487273" xlink:href="#m9cf8798a33" y="202.931577"/>
     <use style="fill:#0000ff;stroke:#0000ff;" x="394.86659" xlink:href="#m9cf8798a33" y="235.709334"/>
     <use style="fill:#0000ff;stroke:#0000ff;" x="398.487273" xlink:href="#m9cf8798a33" y="279.455228"/>
     <use style="fill:#0000ff;stroke:#0000ff;" x="398.487273" xlink:href="#m9cf8798a33" y="240.547084"/>
     <use style="fill:#0000ff;stroke:#0000ff;" x="396.073484" xlink:href="#m9cf8798a33" y="242.977469"/>
     <use style="fill:#0000ff;stroke:#0000ff;" x="396.073484" xlink:href="#m9cf8798a33" y="241.889713"/>
     <use style="fill:#0000ff;stroke:#0000ff;" x="397.280379" xlink:href="#m9cf8798a33" y="169.344361"/>
     <use style="fill:#0000ff;stroke:#0000ff;" x="398.487273" xlink:href="#m9cf8798a33" y="252.483868"/>
     <use style="fill:#0000ff;stroke:#0000ff;" x="398.487273" xlink:href="#m9cf8798a33" y="265.788937"/>
     <use style="fill:#0000ff;stroke:#0000ff;" x="398.487273" xlink:href="#m9cf8798a33" y="252.042872"/>
     <use style="fill:#0000ff;stroke:#0000ff;" x="398.487273" xlink:href="#m9cf8798a33" y="262.801927"/>
     <use style="fill:#0000ff;stroke:#0000ff;" x="398.487273" xlink:href="#m9cf8798a33" y="247.474898"/>
     <use style="fill:#0000ff;stroke:#0000ff;" x="398.487273" xlink:href="#m9cf8798a33" y="273.972803"/>
     <use style="fill:#0000ff;stroke:#0000ff;" x="398.487273" xlink:href="#m9cf8798a33" y="253.188504"/>
     <use style="fill:#0000ff;stroke:#0000ff;" x="398.487273" xlink:href="#m9cf8798a33" y="269.814293"/>
     <use style="fill:#0000ff;stroke:#0000ff;" x="398.487273" xlink:href="#m9cf8798a33" y="241.013583"/>
     <use style="fill:#0000ff;stroke:#0000ff;" x="398.487273" xlink:href="#m9cf8798a33" y="245.104223"/>
     <use style="fill:#0000ff;stroke:#0000ff;" x="398.487273" xlink:href="#m9cf8798a33" y="261.312049"/>
     <use style="fill:#0000ff;stroke:#0000ff;" x="340.55635" xlink:href="#m9cf8798a33" y="284.031263"/>
     <use style="fill:#0000ff;stroke:#0000ff;" x="398.487273" xlink:href="#m9cf8798a33" y="270.646585"/>
     <use style="fill:#0000ff;stroke:#0000ff;" x="390.039013" xlink:href="#m9cf8798a33" y="259.375749"/>
     <use style="fill:#0000ff;stroke:#0000ff;" x="398.487273" xlink:href="#m9cf8798a33" y="273.541526"/>
     <use style="fill:#0000ff;stroke:#0000ff;" x="398.487273" xlink:href="#m9cf8798a33" y="264.435251"/>
     <use style="fill:#0000ff;stroke:#0000ff;" x="398.487273" xlink:href="#m9cf8798a33" y="276.43948"/>
     <use style="fill:#0000ff;stroke:#0000ff;" x="362.280446" xlink:href="#m9cf8798a33" y="209.591206"/>
     <use style="fill:#0000ff;stroke:#0000ff;" x="398.487273" xlink:href="#m9cf8798a33" y="164.042946"/>
     <use style="fill:#0000ff;stroke:#0000ff;" x="394.86659" xlink:href="#m9cf8798a33" y="252.47996"/>
     <use style="fill:#0000ff;stroke:#0000ff;" x="118.487813" xlink:href="#m9cf8798a33" y="234.388425"/>
     <use style="fill:#0000ff;stroke:#0000ff;" x="398.487273" xlink:href="#m9cf8798a33" y="251.116414"/>
     <use style="fill:#0000ff;stroke:#0000ff;" x="397.280379" xlink:href="#m9cf8798a33" y="212.567359"/>
     <use style="fill:#0000ff;stroke:#0000ff;" x="397.280379" xlink:href="#m9cf8798a33" y="287.522772"/>
     <use style="fill:#0000ff;stroke:#0000ff;" x="396.073484" xlink:href="#m9cf8798a33" y="209.443106"/>
     <use style="fill:#0000ff;stroke:#0000ff;" x="398.487273" xlink:href="#m9cf8798a33" y="232.45166"/>
     <use style="fill:#0000ff;stroke:#0000ff;" x="394.86659" xlink:href="#m9cf8798a33" y="280.450653"/>
     <use style="fill:#0000ff;stroke:#0000ff;" x="398.487273" xlink:href="#m9cf8798a33" y="243.920873"/>
     <use style="fill:#0000ff;stroke:#0000ff;" x="382.797648" xlink:href="#m9cf8798a33" y="277.055926"/>
     <use style="fill:#0000ff;stroke:#0000ff;" x="398.487273" xlink:href="#m9cf8798a33" y="259.794918"/>
     <use style="fill:#0000ff;stroke:#0000ff;" x="398.487273" xlink:href="#m9cf8798a33" y="201.684248"/>
     <use style="fill:#0000ff;stroke:#0000ff;" x="398.487273" xlink:href="#m9cf8798a33" y="278.090313"/>
     <use style="fill:#0000ff;stroke:#0000ff;" x="397.280379" xlink:href="#m9cf8798a33" y="196.932536"/>
     <use style="fill:#0000ff;stroke:#0000ff;" x="398.487273" xlink:href="#m9cf8798a33" y="254.308585"/>
     <use style="fill:#0000ff;stroke:#0000ff;" x="391.245907" xlink:href="#m9cf8798a33" y="261.739868"/>
     <use style="fill:#0000ff;stroke:#0000ff;" x="73.832727" xlink:href="#m9cf8798a33" y="223.395176"/>
     <use style="fill:#0000ff;stroke:#0000ff;" x="359.866658" xlink:href="#m9cf8798a33" y="255.209704"/>
     <use style="fill:#0000ff;stroke:#0000ff;" x="398.487273" xlink:href="#m9cf8798a33" y="251.022288"/>
     <use style="fill:#0000ff;stroke:#0000ff;" x="398.487273" xlink:href="#m9cf8798a33" y="215.371277"/>
     <use style="fill:#0000ff;stroke:#0000ff;" x="396.073484" xlink:href="#m9cf8798a33" y="223.845039"/>
     <use style="fill:#0000ff;stroke:#0000ff;" x="394.86659" xlink:href="#m9cf8798a33" y="262.294619"/>
     <use style="fill:#0000ff;stroke:#0000ff;" x="388.832119" xlink:href="#m9cf8798a33" y="251.640762"/>
     <use style="fill:#0000ff;stroke:#0000ff;" x="398.487273" xlink:href="#m9cf8798a33" y="246.043768"/>
     <use style="fill:#0000ff;stroke:#0000ff;" x="396.073484" xlink:href="#m9cf8798a33" y="267.885445"/>
     <use style="fill:#0000ff;stroke:#0000ff;" x="398.487273" xlink:href="#m9cf8798a33" y="282.204092"/>
     <use style="fill:#0000ff;stroke:#0000ff;" x="398.487273" xlink:href="#m9cf8798a33" y="243.926861"/>
     <use style="fill:#0000ff;stroke:#0000ff;" x="125.729179" xlink:href="#m9cf8798a33" y="272.527004"/>
     <use style="fill:#0000ff;stroke:#0000ff;" x="294.69437" xlink:href="#m9cf8798a33" y="278.1836"/>
     <use style="fill:#0000ff;stroke:#0000ff;" x="362.280446" xlink:href="#m9cf8798a33" y="283.018785"/>
     <use style="fill:#0000ff;stroke:#0000ff;" x="396.073484" xlink:href="#m9cf8798a33" y="282.801523"/>
     <use style="fill:#0000ff;stroke:#0000ff;" x="397.280379" xlink:href="#m9cf8798a33" y="278.675556"/>
     <use style="fill:#0000ff;stroke:#0000ff;" x="398.487273" xlink:href="#m9cf8798a33" y="250.231639"/>
     <use style="fill:#0000ff;stroke:#0000ff;" x="340.55635" xlink:href="#m9cf8798a33" y="280.772983"/>
     <use style="fill:#0000ff;stroke:#0000ff;" x="397.280379" xlink:href="#m9cf8798a33" y="248.776558"/>
     <use style="fill:#0000ff;stroke:#0000ff;" x="397.280379" xlink:href="#m9cf8798a33" y="258.721813"/>
     <use style="fill:#0000ff;stroke:#0000ff;" x="398.487273" xlink:href="#m9cf8798a33" y="268.208923"/>
     <use style="fill:#0000ff;stroke:#0000ff;" x="398.487273" xlink:href="#m9cf8798a33" y="272.26655"/>
     <use style="fill:#0000ff;stroke:#0000ff;" x="371.9356" xlink:href="#m9cf8798a33" y="247.703115"/>
     <use style="fill:#0000ff;stroke:#0000ff;" x="398.487273" xlink:href="#m9cf8798a33" y="209.468649"/>
     <use style="fill:#0000ff;stroke:#0000ff;" x="396.073484" xlink:href="#m9cf8798a33" y="262.861487"/>
     <use style="fill:#0000ff;stroke:#0000ff;" x="394.86659" xlink:href="#m9cf8798a33" y="265.067513"/>
     <use style="fill:#0000ff;stroke:#0000ff;" x="393.659696" xlink:href="#m9cf8798a33" y="240.866719"/>
     <use style="fill:#0000ff;stroke:#0000ff;" x="398.487273" xlink:href="#m9cf8798a33" y="172.444776"/>
     <use style="fill:#0000ff;stroke:#0000ff;" x="398.487273" xlink:href="#m9cf8798a33" y="262.982966"/>
     <use style="fill:#0000ff;stroke:#0000ff;" x="361.073552" xlink:href="#m9cf8798a33" y="259.669788"/>
     <use style="fill:#0000ff;stroke:#0000ff;" x="392.452802" xlink:href="#m9cf8798a33" y="268.01202"/>
     <use style="fill:#0000ff;stroke:#0000ff;" x="394.86659" xlink:href="#m9cf8798a33" y="256.515923"/>
     <use style="fill:#0000ff;stroke:#0000ff;" x="398.487273" xlink:href="#m9cf8798a33" y="207.490695"/>
     <use style="fill:#0000ff;stroke:#0000ff;" x="398.487273" xlink:href="#m9cf8798a33" y="282.559294"/>
     <use style="fill:#0000ff;stroke:#0000ff;" x="396.073484" xlink:href="#m9cf8798a33" y="203.508869"/>
     <use style="fill:#0000ff;stroke:#0000ff;" x="393.659696" xlink:href="#m9cf8798a33" y="274.667328"/>
     <use style="fill:#0000ff;stroke:#0000ff;" x="398.487273" xlink:href="#m9cf8798a33" y="281.475863"/>
     <use style="fill:#0000ff;stroke:#0000ff;" x="391.245907" xlink:href="#m9cf8798a33" y="287.742973"/>
     <use style="fill:#0000ff;stroke:#0000ff;" x="370.728706" xlink:href="#m9cf8798a33" y="264.474226"/>
     <use style="fill:#0000ff;stroke:#0000ff;" x="365.901129" xlink:href="#m9cf8798a33" y="211.155286"/>
     <use style="fill:#0000ff;stroke:#0000ff;" x="396.073484" xlink:href="#m9cf8798a33" y="240.141215"/>
     <use style="fill:#0000ff;stroke:#0000ff;" x="398.487273" xlink:href="#m9cf8798a33" y="242.870978"/>
     <use style="fill:#0000ff;stroke:#0000ff;" x="140.211909" xlink:href="#m9cf8798a33" y="266.841174"/>
     <use style="fill:#0000ff;stroke:#0000ff;" x="398.487273" xlink:href="#m9cf8798a33" y="272.852104"/>
     <use style="fill:#0000ff;stroke:#0000ff;" x="398.487273" xlink:href="#m9cf8798a33" y="207.773161"/>
     <use style="fill:#0000ff;stroke:#0000ff;" x="397.280379" xlink:href="#m9cf8798a33" y="260.614065"/>
     <use style="fill:#0000ff;stroke:#0000ff;" x="398.487273" xlink:href="#m9cf8798a33" y="277.257693"/>
     <use style="fill:#0000ff;stroke:#0000ff;" x="332.108091" xlink:href="#m9cf8798a33" y="262.142656"/>
     <use style="fill:#0000ff;stroke:#0000ff;" x="398.487273" xlink:href="#m9cf8798a33" y="260.387684"/>
     <use style="fill:#0000ff;stroke:#0000ff;" x="398.487273" xlink:href="#m9cf8798a33" y="256.043258"/>
     <use style="fill:#0000ff;stroke:#0000ff;" x="394.86659" xlink:href="#m9cf8798a33" y="275.711461"/>
     <use style="fill:#0000ff;stroke:#0000ff;" x="398.487273" xlink:href="#m9cf8798a33" y="260.59971"/>
     <use style="fill:#0000ff;stroke:#0000ff;" x="398.487273" xlink:href="#m9cf8798a33" y="254.191219"/>
     <use style="fill:#0000ff;stroke:#0000ff;" x="307.970206" xlink:href="#m9cf8798a33" y="139.559906"/>
     <use style="fill:#0000ff;stroke:#0000ff;" x="396.073484" xlink:href="#m9cf8798a33" y="258.402263"/>
     <use style="fill:#0000ff;stroke:#0000ff;" x="398.487273" xlink:href="#m9cf8798a33" y="259.109713"/>
     <use style="fill:#0000ff;stroke:#0000ff;" x="398.487273" xlink:href="#m9cf8798a33" y="269.650584"/>
     <use style="fill:#0000ff;stroke:#0000ff;" x="396.073484" xlink:href="#m9cf8798a33" y="259.799189"/>
     <use style="fill:#0000ff;stroke:#0000ff;" x="388.832119" xlink:href="#m9cf8798a33" y="252.742103"/>
     <use style="fill:#0000ff;stroke:#0000ff;" x="396.073484" xlink:href="#m9cf8798a33" y="249.00049"/>
     <use style="fill:#0000ff;stroke:#0000ff;" x="397.280379" xlink:href="#m9cf8798a33" y="265.130069"/>
     <use style="fill:#0000ff;stroke:#0000ff;" x="398.487273" xlink:href="#m9cf8798a33" y="249.585378"/>
     <use style="fill:#0000ff;stroke:#0000ff;" x="128.142967" xlink:href="#m9cf8798a33" y="177.588924"/>
     <use style="fill:#0000ff;stroke:#0000ff;" x="397.280379" xlink:href="#m9cf8798a33" y="251.512831"/>
     <use style="fill:#0000ff;stroke:#0000ff;" x="398.487273" xlink:href="#m9cf8798a33" y="202.642761"/>
     <use style="fill:#0000ff;stroke:#0000ff;" x="398.487273" xlink:href="#m9cf8798a33" y="268.769593"/>
     <use style="fill:#0000ff;stroke:#0000ff;" x="396.073484" xlink:href="#m9cf8798a33" y="256.779598"/>
     <use style="fill:#0000ff;stroke:#0000ff;" x="346.590821" xlink:href="#m9cf8798a33" y="254.69413"/>
     <use style="fill:#0000ff;stroke:#0000ff;" x="398.487273" xlink:href="#m9cf8798a33" y="234.634157"/>
     <use style="fill:#0000ff;stroke:#0000ff;" x="394.86659" xlink:href="#m9cf8798a33" y="278.049107"/>
     <use style="fill:#0000ff;stroke:#0000ff;" x="362.280446" xlink:href="#m9cf8798a33" y="248.83536"/>
     <use style="fill:#0000ff;stroke:#0000ff;" x="397.280379" xlink:href="#m9cf8798a33" y="135.585458"/>
     <use style="fill:#0000ff;stroke:#0000ff;" x="398.487273" xlink:href="#m9cf8798a33" y="96.026355"/>
     <use style="fill:#0000ff;stroke:#0000ff;" x="386.418331" xlink:href="#m9cf8798a33" y="195.358258"/>
     <use style="fill:#0000ff;stroke:#0000ff;" x="397.280379" xlink:href="#m9cf8798a33" y="253.977959"/>
     <use style="fill:#0000ff;stroke:#0000ff;" x="398.487273" xlink:href="#m9cf8798a33" y="263.771284"/>
     <use style="fill:#0000ff;stroke:#0000ff;" x="398.487273" xlink:href="#m9cf8798a33" y="264.376242"/>
     <use style="fill:#0000ff;stroke:#0000ff;" x="387.625225" xlink:href="#m9cf8798a33" y="275.632842"/>
     <use style="fill:#0000ff;stroke:#0000ff;" x="367.108023" xlink:href="#m9cf8798a33" y="269.307371"/>
     <use style="fill:#0000ff;stroke:#0000ff;" x="394.86659" xlink:href="#m9cf8798a33" y="251.537684"/>
     <use style="fill:#0000ff;stroke:#0000ff;" x="396.073484" xlink:href="#m9cf8798a33" y="243.398357"/>
     <use style="fill:#0000ff;stroke:#0000ff;" x="398.487273" xlink:href="#m9cf8798a33" y="278.644755"/>
     <use style="fill:#0000ff;stroke:#0000ff;" x="323.659831" xlink:href="#m9cf8798a33" y="267.205263"/>
     <use style="fill:#0000ff;stroke:#0000ff;" x="393.659696" xlink:href="#m9cf8798a33" y="244.97305"/>
     <use style="fill:#0000ff;stroke:#0000ff;" x="398.487273" xlink:href="#m9cf8798a33" y="271.807113"/>
     <use style="fill:#0000ff;stroke:#0000ff;" x="398.487273" xlink:href="#m9cf8798a33" y="245.217235"/>
     <use style="fill:#0000ff;stroke:#0000ff;" x="307.970206" xlink:href="#m9cf8798a33" y="208.076203"/>
     <use style="fill:#0000ff;stroke:#0000ff;" x="398.487273" xlink:href="#m9cf8798a33" y="266.764803"/>
     <use style="fill:#0000ff;stroke:#0000ff;" x="398.487273" xlink:href="#m9cf8798a33" y="241.036071"/>
     <use style="fill:#0000ff;stroke:#0000ff;" x="326.073619" xlink:href="#m9cf8798a33" y="120.55899"/>
     <use style="fill:#0000ff;stroke:#0000ff;" x="398.487273" xlink:href="#m9cf8798a33" y="277.559533"/>
     <use style="fill:#0000ff;stroke:#0000ff;" x="398.487273" xlink:href="#m9cf8798a33" y="151.916672"/>
     <use style="fill:#0000ff;stroke:#0000ff;" x="398.487273" xlink:href="#m9cf8798a33" y="260.861"/>
     <use style="fill:#0000ff;stroke:#0000ff;" x="392.452802" xlink:href="#m9cf8798a33" y="244.765283"/>
     <use style="fill:#0000ff;stroke:#0000ff;" x="397.280379" xlink:href="#m9cf8798a33" y="270.852984"/>
     <use style="fill:#0000ff;stroke:#0000ff;" x="398.487273" xlink:href="#m9cf8798a33" y="271.879216"/>
     <use style="fill:#0000ff;stroke:#0000ff;" x="398.487273" xlink:href="#m9cf8798a33" y="275.898224"/>
     <use style="fill:#0000ff;stroke:#0000ff;" x="374.349388" xlink:href="#m9cf8798a33" y="265.757926"/>
     <use style="fill:#0000ff;stroke:#0000ff;" x="398.487273" xlink:href="#m9cf8798a33" y="216.665173"/>
     <use style="fill:#0000ff;stroke:#0000ff;" x="398.487273" xlink:href="#m9cf8798a33" y="254.453379"/>
     <use style="fill:#0000ff;stroke:#0000ff;" x="398.487273" xlink:href="#m9cf8798a33" y="214.364059"/>
     <use style="fill:#0000ff;stroke:#0000ff;" x="398.487273" xlink:href="#m9cf8798a33" y="204.120126"/>
     <use style="fill:#0000ff;stroke:#0000ff;" x="396.073484" xlink:href="#m9cf8798a33" y="236.71463"/>
     <use style="fill:#0000ff;stroke:#0000ff;" x="391.245907" xlink:href="#m9cf8798a33" y="274.694868"/>
     <use style="fill:#0000ff;stroke:#0000ff;" x="398.487273" xlink:href="#m9cf8798a33" y="274.60774"/>
     <use style="fill:#0000ff;stroke:#0000ff;" x="398.487273" xlink:href="#m9cf8798a33" y="278.619323"/>
     <use style="fill:#0000ff;stroke:#0000ff;" x="397.280379" xlink:href="#m9cf8798a33" y="263.478234"/>
     <use style="fill:#0000ff;stroke:#0000ff;" x="398.487273" xlink:href="#m9cf8798a33" y="228.898208"/>
     <use style="fill:#0000ff;stroke:#0000ff;" x="398.487273" xlink:href="#m9cf8798a33" y="244.293326"/>
     <use style="fill:#0000ff;stroke:#0000ff;" x="398.487273" xlink:href="#m9cf8798a33" y="274.297529"/>
     <use style="fill:#0000ff;stroke:#0000ff;" x="165.556688" xlink:href="#m9cf8798a33" y="234.364902"/>
     <use style="fill:#0000ff;stroke:#0000ff;" x="165.556688" xlink:href="#m9cf8798a33" y="285.300973"/>
    </g>
   </g>
   <g id="patch_3">
    <path d="M 57.6 307.584 
L 57.6 41.472 
" style="fill:none;stroke:#000000;stroke-linecap:square;stroke-linejoin:miter;stroke-width:0.8;"/>
   </g>
   <g id="patch_4">
    <path d="M 414.72 307.584 
L 414.72 41.472 
" style="fill:none;stroke:#000000;stroke-linecap:square;stroke-linejoin:miter;stroke-width:0.8;"/>
   </g>
   <g id="patch_5">
    <path d="M 57.6 307.584 
L 414.72 307.584 
" style="fill:none;stroke:#000000;stroke-linecap:square;stroke-linejoin:miter;stroke-width:0.8;"/>
   </g>
   <g id="patch_6">
    <path d="M 57.6 41.472 
L 414.72 41.472 
" style="fill:none;stroke:#000000;stroke-linecap:square;stroke-linejoin:miter;stroke-width:0.8;"/>
   </g>
   <g id="text_17">
    <!-- Temperature vs Population Density -->
    <g transform="translate(130.077187 35.472)scale(0.12 -0.12)">
     <use xlink:href="#DejaVuSans-84"/>
     <use x="60.818359" xlink:href="#DejaVuSans-101"/>
     <use x="122.341797" xlink:href="#DejaVuSans-109"/>
     <use x="219.753906" xlink:href="#DejaVuSans-112"/>
     <use x="283.230469" xlink:href="#DejaVuSans-101"/>
     <use x="344.753906" xlink:href="#DejaVuSans-114"/>
     <use x="385.867188" xlink:href="#DejaVuSans-97"/>
     <use x="447.146484" xlink:href="#DejaVuSans-116"/>
     <use x="486.355469" xlink:href="#DejaVuSans-117"/>
     <use x="549.734375" xlink:href="#DejaVuSans-114"/>
     <use x="590.816406" xlink:href="#DejaVuSans-101"/>
     <use x="652.339844" xlink:href="#DejaVuSans-32"/>
     <use x="684.126953" xlink:href="#DejaVuSans-118"/>
     <use x="743.306641" xlink:href="#DejaVuSans-115"/>
     <use x="795.40625" xlink:href="#DejaVuSans-32"/>
     <use x="827.193359" xlink:href="#DejaVuSans-80"/>
     <use x="887.449219" xlink:href="#DejaVuSans-111"/>
     <use x="948.630859" xlink:href="#DejaVuSans-112"/>
     <use x="1012.107422" xlink:href="#DejaVuSans-117"/>
     <use x="1075.486328" xlink:href="#DejaVuSans-108"/>
     <use x="1103.269531" xlink:href="#DejaVuSans-97"/>
     <use x="1164.548828" xlink:href="#DejaVuSans-116"/>
     <use x="1203.757812" xlink:href="#DejaVuSans-105"/>
     <use x="1231.541016" xlink:href="#DejaVuSans-111"/>
     <use x="1292.722656" xlink:href="#DejaVuSans-110"/>
     <use x="1356.101562" xlink:href="#DejaVuSans-32"/>
     <use x="1387.888672" xlink:href="#DejaVuSans-68"/>
     <use x="1464.890625" xlink:href="#DejaVuSans-101"/>
     <use x="1526.414062" xlink:href="#DejaVuSans-110"/>
     <use x="1589.792969" xlink:href="#DejaVuSans-115"/>
     <use x="1641.892578" xlink:href="#DejaVuSans-105"/>
     <use x="1669.675781" xlink:href="#DejaVuSans-116"/>
     <use x="1708.884766" xlink:href="#DejaVuSans-121"/>
    </g>
   </g>
  </g>
 </g>
 <defs>
  <clipPath id="pda09206d4f">
   <rect height="266.112" width="357.12" x="57.6" y="41.472"/>
  </clipPath>
 </defs>
</svg>
